# xmcd
#
# Track frame offsets:
#	150
#	11320
#	21046
#	36020
#	46616
#	59045
#	70724
#	82207
#	95858
#	107961
#	121912
#	134129
#	145085
#	158553
#	168992
#	179578
#	190302
#	200443
#	213338
#	227240
#
# Disc length: 3187 seconds
#
# Revision: 1
# Processed by: cddbd v1.5.2PL0 Copyright (c) Steve Scherf et al.
# Submitted via: audiograbber 1.83.01
#
DISCID=1f0c7114
DTITLE=Various Artist - Country Greats Vol 15
DYEAR=2002
DGENRE=Older Country
TTITLE0=Stonewall Jackson - Waterloo
TTITLE1=Murry Kellum - Long Tall Texan
TTITLE2=Anne Murray - There Goes My Everything
TTITLE3=Nat Stuckey - Plastic Saddle
TTITLE4=Don Williams - Coming Apart
TTITLE5=Conway Twitty - Sitting In A Dim cafe
TTITLE6=Patsy Cline - Lonely Street
TTITLE7=Porter Wagoner - Skid Row Joe
TTITLE8=Jeannie C Riley - Country Girl
TTITLE9=Don Fardon - Champion Of The Rodeo
TTITLE10=Reg Lindsay - You're The One
TTITLE11=Lee Conway - Country Nights Country Days
TTITLE12=Stonewall Jackson - BJ The DJ
TTITLE13=Barbara Fairchild - Kid Stuff
TTITLE14=Connie Smith - Ain't had No Lovin'
TTITLE15=Faron Young - Riverboat
TTITLE16=Jean Shephard - If Teardrops Were Silver
TTITLE17=Kitty Wells - This White Circle On My Finger
TTITLE18=Jeannie Seely - Don't Touch Me
TTITLE19=Bill Monroe - Rocky Road Blues
EXTD=20 cd set
EXTT0=
EXTT1=
EXTT2=
EXTT3=
EXTT4=
EXTT5=
EXTT6=
EXTT7=
EXTT8=
EXTT9=
EXTT10=
EXTT11=
EXTT12=
EXTT13=
EXTT14=
EXTT15=
EXTT16=
EXTT17=
EXTT18=
EXTT19=
PLAYORDER=
